<?xml version="1.0" encoding="UTF-8"?>
<svg id="Camada_1" data-name="Camada 1" xmlns="http://www.w3.org/2000/svg" viewBox="0 0 406.83 734.73">
  <defs>
    <style>
      .cls-1 {
        fill: #1e2d52;
      }

      .cls-2 {
        fill: #1f8240;
      }
    </style>
  </defs>
  <path class="cls-1" d="M255.51,453.15v-1.53c63.43-19.95,101.85-63.68,101.85-113.55,0-38.31-16.65-67.76-44.73-87.72-2.41,8.33-10.1,14.45-19.2,14.45h-29.38c-11.03,0-20-8.97-20-20v-25.59c-27.8-6.84-61.05-10.04-102-10.04-54.5,0-108.1,4.6-142.05,10.74v508.68c25.91,3.07,67,6.14,120.61,6.14,98.27,0,166.17-15.34,208.16-48.34,30.38-25.32,50.92-59.08,50.92-103.58,0-76.72-67-117.39-124.18-129.66ZM77.72,265.18c12.51-2.3,33.06-4.6,68.79-4.6,78.62,0,132.22,23.78,132.22,84.4,0,49.87-48.24,86.7-130.43,86.7h-70.58v-166.49ZM142.94,682.55c-27.69,0-50.03-.77-65.22-3.07v-197.18h64.32c84.87,0,155.45,29.16,155.45,99.74,0,75.19-74.15,100.51-154.56,100.51Z"/>
  <path class="cls-2" d="M391.83,98.4h-83.4V15c0-8.28-6.72-15-15-15h-29.38c-8.28,0-15,6.72-15,15v83.4h-83.4c-8.28,0-15,6.72-15,15v29.38c0,8.28,6.72,15,15,15h83.4v83.4c0,8.28,6.72,15,15,15h29.38c8.28,0,15-6.72,15-15v-83.4h83.4c8.28,0,15-6.72,15-15v-29.38c0-8.28-6.72-15-15-15Z"/>
</svg>